<svg width="300" height="284" viewBox="0 0 300 284" fill="none" xmlns="http://www.w3.org/2000/svg">
<path d="M90.192 93.6519V179.213H77.1134L29.9327 121.276V179.213H14.165V93.6519H27.2436L74.4243 151.589V93.6519H90.192Z" fill="black"/>
<path d="M129.009 106.975V133.01H170.322V146.455H129.009V179.213H113.119V93.6519H175.578V106.975H129.009Z" fill="black"/>
<path d="M269.538 179.213L269.416 122.498L241.303 169.434H234.214L206.101 123.231V179.213H190.945V93.6519H204.023L238.003 150.366L271.372 93.6519H284.45L284.573 179.213H269.538Z" fill="black"/>
<path d="M1.5 13.8223V15.3223H3H21.0568V63.7736V65.2736H22.5568H30.6239H32.1239V63.7736V15.3223H50.1807H51.6807V13.8223V6.73298V5.23298H50.1807H3H1.5V6.73298V13.8223ZM98.9026 65.2736H100.403V63.7736V38.9202C100.403 32.529 98.7027 27.4384 95.0652 23.9164C91.5222 20.3785 86.7659 18.6783 80.9756 18.6783C77.5385 18.6783 74.3734 19.2805 71.5027 20.5107L71.4923 20.5152C69.9183 21.2039 68.4979 22.0542 67.2376 23.0677V3.31055V1.81055H65.7376H57.9149H56.4149V3.31055V63.7736V65.2736H57.9149H65.7376H67.2376V63.7736V41.5277C67.2376 37.1701 68.3863 34.074 70.4652 31.9951L70.471 31.9893L70.4768 31.9834C72.5809 29.8325 75.502 28.6861 79.4274 28.6861C82.8874 28.6861 85.3248 29.6553 86.9767 31.3965C88.6268 33.1357 89.5799 35.8519 89.5799 39.8165V63.7736V65.2736H91.0799H98.9026ZM152.488 46.2872H153.83L153.979 44.9528C154.09 43.9502 154.151 43.1008 154.151 42.4241C154.151 37.8633 153.18 33.7553 151.2 30.1405C149.279 26.5339 146.558 23.721 143.054 21.7326C139.596 19.6845 135.664 18.6783 131.301 18.6783C126.934 18.6783 122.953 19.6864 119.394 21.7273C115.892 23.7129 113.12 26.5196 111.09 30.1156L111.086 30.1236L111.081 30.1318C109.102 33.7402 108.126 37.7675 108.126 42.1796C108.126 46.65 109.131 50.7109 111.172 54.3251L111.176 54.3331L111.181 54.3409C113.28 57.9561 116.229 60.784 119.997 62.8126L120.005 62.8169L120.013 62.8211C123.788 64.7957 128.079 65.7625 132.849 65.7625C136.601 65.7625 140.03 65.1372 143.116 63.8575C146.257 62.5773 148.9 60.7026 151.019 58.2308L151.855 57.2559L151.02 56.28L146.701 51.2278L145.594 49.9324L144.45 51.1952C141.614 54.3248 137.878 55.9176 133.094 55.9176C129.147 55.9176 125.935 54.8629 123.363 52.8291C121.28 51.1025 119.91 48.9392 119.251 46.2872H152.488ZM139.648 31.3784L139.66 31.3899L139.673 31.4011C141.536 33.0665 142.772 35.1371 143.37 37.6646H119.224C119.814 35.0787 121.031 32.981 122.854 31.3142C125.105 29.3059 127.887 28.2787 131.301 28.2787C134.709 28.2787 137.454 29.328 139.648 31.3784Z" stroke="black" stroke-width="3"/>
<mask id="path-3-outside-1_130:87" maskUnits="userSpaceOnUse" x="8.22852" y="199.409" width="292" height="84" fill="black">
<rect fill="white" x="8.22852" y="199.409" width="292" height="84"/>
<path d="M33.4743 207.054C40.8625 207.054 46.6752 208.82 50.9125 212.351C55.1498 215.882 57.2684 220.744 57.2684 226.937C57.2684 233.13 55.1498 237.992 50.9125 241.523C46.6752 245.054 40.8625 246.82 33.4743 246.82H19.3772V264.095H11.2285V207.054H33.4743ZM33.2299 239.73C38.3907 239.73 42.3292 238.644 45.0454 236.471C47.7616 234.243 49.1198 231.066 49.1198 226.937C49.1198 222.808 47.7616 219.657 45.0454 217.484C42.3292 215.257 38.3907 214.143 33.2299 214.143H19.3772V239.73H33.2299Z"/>
<path d="M74.8797 228.159C76.2378 225.66 78.2478 223.759 80.9097 222.455C83.5716 221.151 86.8039 220.499 90.6066 220.499V228.078C90.172 228.023 89.5744 227.996 88.8139 227.996C84.5766 227.996 81.2356 229.273 78.791 231.826C76.4008 234.325 75.2056 237.91 75.2056 242.582V264.095H67.3829V220.907H74.8797V228.159Z"/>
<path d="M118.348 264.584C114.056 264.584 110.199 263.633 106.777 261.732C103.354 259.83 100.665 257.223 98.7094 253.909C96.808 250.541 95.8574 246.738 95.8574 242.501C95.8574 238.263 96.808 234.488 98.7094 231.174C100.665 227.806 103.354 225.198 106.777 223.351C110.199 221.45 114.056 220.499 118.348 220.499C122.639 220.499 126.469 221.45 129.837 223.351C133.26 225.198 135.922 227.806 137.823 231.174C139.779 234.488 140.756 238.263 140.756 242.501C140.756 246.738 139.779 250.541 137.823 253.909C135.922 257.223 133.26 259.83 129.837 261.732C126.469 263.633 122.639 264.584 118.348 264.584ZM118.348 257.739C121.118 257.739 123.59 257.114 125.763 255.865C127.99 254.561 129.729 252.768 130.978 250.486C132.228 248.151 132.852 245.489 132.852 242.501C132.852 239.513 132.228 236.878 130.978 234.597C129.729 232.261 127.99 230.468 125.763 229.218C123.59 227.969 121.118 227.344 118.348 227.344C115.577 227.344 113.078 227.969 110.851 229.218C108.678 230.468 106.94 232.261 105.636 234.597C104.386 236.878 103.762 239.513 103.762 242.501C103.762 245.489 104.386 248.151 105.636 250.486C106.94 252.768 108.678 254.561 110.851 255.865C113.078 257.114 115.577 257.739 118.348 257.739Z"/>
<path d="M146.034 280.392C144.133 280.392 142.367 280.175 140.737 279.74C139.108 279.306 137.75 278.654 136.663 277.784L139.189 271.754C140.819 273.113 142.937 273.792 145.545 273.792C147.609 273.792 149.185 273.14 150.271 271.836C151.412 270.586 151.982 268.712 151.982 266.213V220.907H159.805V266.05C159.805 270.505 158.61 274.009 156.22 276.562C153.83 279.115 150.434 280.392 146.034 280.392ZM155.894 212.595C154.373 212.595 153.096 212.106 152.064 211.128C151.086 210.151 150.597 208.956 150.597 207.543C150.597 206.131 151.086 204.936 152.064 203.958C153.096 202.926 154.373 202.409 155.894 202.409C157.415 202.409 158.664 202.898 159.642 203.876C160.674 204.8 161.19 205.968 161.19 207.38C161.19 208.847 160.674 210.096 159.642 211.128C158.664 212.106 157.415 212.595 155.894 212.595Z"/>
<path d="M213.764 242.745C213.764 243.343 213.71 244.131 213.601 245.108H178.562C179.051 248.911 180.708 251.98 183.532 254.316C186.412 256.598 189.97 257.739 194.207 257.739C199.368 257.739 203.524 256 206.675 252.524L210.993 257.576C209.038 259.857 206.593 261.596 203.66 262.791C200.78 263.986 197.548 264.584 193.963 264.584C189.399 264.584 185.352 263.66 181.821 261.813C178.29 259.912 175.547 257.277 173.591 253.909C171.69 250.541 170.739 246.738 170.739 242.501C170.739 238.318 171.663 234.542 173.51 231.174C175.411 227.806 177.991 225.198 181.251 223.351C184.565 221.45 188.286 220.499 192.414 220.499C196.543 220.499 200.21 221.45 203.415 223.351C206.675 225.198 209.201 227.806 210.993 231.174C212.84 234.542 213.764 238.399 213.764 242.745ZM192.414 227.1C188.666 227.1 185.515 228.241 182.962 230.522C180.463 232.804 178.996 235.792 178.562 239.486H206.267C205.833 235.846 204.339 232.885 201.785 230.604C199.286 228.268 196.163 227.1 192.414 227.1Z"/>
<path d="M243.45 264.584C239.05 264.584 235.111 263.633 231.634 261.732C228.212 259.83 225.523 257.223 223.567 253.909C221.611 250.541 220.634 246.738 220.634 242.501C220.634 238.263 221.611 234.488 223.567 231.174C225.523 227.806 228.212 225.198 231.634 223.351C235.111 221.45 239.05 220.499 243.45 220.499C247.361 220.499 250.838 221.287 253.88 222.863C256.977 224.438 259.367 226.72 261.051 229.707L255.102 233.537C253.744 231.473 252.06 229.925 250.05 228.893C248.04 227.86 245.813 227.344 243.368 227.344C240.544 227.344 237.99 227.969 235.709 229.218C233.481 230.468 231.716 232.261 230.412 234.597C229.163 236.878 228.538 239.513 228.538 242.501C228.538 245.543 229.163 248.232 230.412 250.568C231.716 252.85 233.481 254.615 235.709 255.865C237.99 257.114 240.544 257.739 243.368 257.739C245.813 257.739 248.04 257.223 250.05 256.191C252.06 255.158 253.744 253.61 255.102 251.546L261.051 255.294C259.367 258.282 256.977 260.591 253.88 262.221C250.838 263.796 247.361 264.584 243.45 264.584Z"/>
<path d="M296.019 261.569C294.878 262.546 293.466 263.307 291.782 263.85C290.098 264.339 288.359 264.584 286.566 264.584C282.22 264.584 278.852 263.416 276.462 261.08C274.072 258.744 272.877 255.403 272.877 251.057V227.344H265.543V220.907H272.877V211.454H280.699V220.907H293.085V227.344H280.699V250.731C280.699 253.067 281.27 254.86 282.411 256.109C283.606 257.359 285.29 257.983 287.463 257.983C289.853 257.983 291.89 257.304 293.574 255.946L296.019 261.569Z"/>
</mask>
<path d="M33.4743 207.054C40.8625 207.054 46.6752 208.82 50.9125 212.351C55.1498 215.882 57.2684 220.744 57.2684 226.937C57.2684 233.13 55.1498 237.992 50.9125 241.523C46.6752 245.054 40.8625 246.82 33.4743 246.82H19.3772V264.095H11.2285V207.054H33.4743ZM33.2299 239.73C38.3907 239.73 42.3292 238.644 45.0454 236.471C47.7616 234.243 49.1198 231.066 49.1198 226.937C49.1198 222.808 47.7616 219.657 45.0454 217.484C42.3292 215.257 38.3907 214.143 33.2299 214.143H19.3772V239.73H33.2299Z" stroke="black" stroke-width="6" mask="url(#path-3-outside-1_130:87)"/>
<path d="M74.8797 228.159C76.2378 225.66 78.2478 223.759 80.9097 222.455C83.5716 221.151 86.8039 220.499 90.6066 220.499V228.078C90.172 228.023 89.5744 227.996 88.8139 227.996C84.5766 227.996 81.2356 229.273 78.791 231.826C76.4008 234.325 75.2056 237.91 75.2056 242.582V264.095H67.3829V220.907H74.8797V228.159Z" stroke="black" stroke-width="6" mask="url(#path-3-outside-1_130:87)"/>
<path d="M118.348 264.584C114.056 264.584 110.199 263.633 106.777 261.732C103.354 259.83 100.665 257.223 98.7094 253.909C96.808 250.541 95.8574 246.738 95.8574 242.501C95.8574 238.263 96.808 234.488 98.7094 231.174C100.665 227.806 103.354 225.198 106.777 223.351C110.199 221.45 114.056 220.499 118.348 220.499C122.639 220.499 126.469 221.45 129.837 223.351C133.26 225.198 135.922 227.806 137.823 231.174C139.779 234.488 140.756 238.263 140.756 242.501C140.756 246.738 139.779 250.541 137.823 253.909C135.922 257.223 133.26 259.83 129.837 261.732C126.469 263.633 122.639 264.584 118.348 264.584ZM118.348 257.739C121.118 257.739 123.59 257.114 125.763 255.865C127.99 254.561 129.729 252.768 130.978 250.486C132.228 248.151 132.852 245.489 132.852 242.501C132.852 239.513 132.228 236.878 130.978 234.597C129.729 232.261 127.99 230.468 125.763 229.218C123.59 227.969 121.118 227.344 118.348 227.344C115.577 227.344 113.078 227.969 110.851 229.218C108.678 230.468 106.94 232.261 105.636 234.597C104.386 236.878 103.762 239.513 103.762 242.501C103.762 245.489 104.386 248.151 105.636 250.486C106.94 252.768 108.678 254.561 110.851 255.865C113.078 257.114 115.577 257.739 118.348 257.739Z" stroke="black" stroke-width="6" mask="url(#path-3-outside-1_130:87)"/>
<path d="M146.034 280.392C144.133 280.392 142.367 280.175 140.737 279.74C139.108 279.306 137.75 278.654 136.663 277.784L139.189 271.754C140.819 273.113 142.937 273.792 145.545 273.792C147.609 273.792 149.185 273.14 150.271 271.836C151.412 270.586 151.982 268.712 151.982 266.213V220.907H159.805V266.05C159.805 270.505 158.61 274.009 156.22 276.562C153.83 279.115 150.434 280.392 146.034 280.392ZM155.894 212.595C154.373 212.595 153.096 212.106 152.064 211.128C151.086 210.151 150.597 208.956 150.597 207.543C150.597 206.131 151.086 204.936 152.064 203.958C153.096 202.926 154.373 202.409 155.894 202.409C157.415 202.409 158.664 202.898 159.642 203.876C160.674 204.8 161.19 205.968 161.19 207.38C161.19 208.847 160.674 210.096 159.642 211.128C158.664 212.106 157.415 212.595 155.894 212.595Z" stroke="black" stroke-width="6" mask="url(#path-3-outside-1_130:87)"/>
<path d="M213.764 242.745C213.764 243.343 213.71 244.131 213.601 245.108H178.562C179.051 248.911 180.708 251.98 183.532 254.316C186.412 256.598 189.97 257.739 194.207 257.739C199.368 257.739 203.524 256 206.675 252.524L210.993 257.576C209.038 259.857 206.593 261.596 203.66 262.791C200.78 263.986 197.548 264.584 193.963 264.584C189.399 264.584 185.352 263.66 181.821 261.813C178.29 259.912 175.547 257.277 173.591 253.909C171.69 250.541 170.739 246.738 170.739 242.501C170.739 238.318 171.663 234.542 173.51 231.174C175.411 227.806 177.991 225.198 181.251 223.351C184.565 221.45 188.286 220.499 192.414 220.499C196.543 220.499 200.21 221.45 203.415 223.351C206.675 225.198 209.201 227.806 210.993 231.174C212.84 234.542 213.764 238.399 213.764 242.745ZM192.414 227.1C188.666 227.1 185.515 228.241 182.962 230.522C180.463 232.804 178.996 235.792 178.562 239.486H206.267C205.833 235.846 204.339 232.885 201.785 230.604C199.286 228.268 196.163 227.1 192.414 227.1Z" stroke="black" stroke-width="6" mask="url(#path-3-outside-1_130:87)"/>
<path d="M243.45 264.584C239.05 264.584 235.111 263.633 231.634 261.732C228.212 259.83 225.523 257.223 223.567 253.909C221.611 250.541 220.634 246.738 220.634 242.501C220.634 238.263 221.611 234.488 223.567 231.174C225.523 227.806 228.212 225.198 231.634 223.351C235.111 221.45 239.05 220.499 243.45 220.499C247.361 220.499 250.838 221.287 253.88 222.863C256.977 224.438 259.367 226.72 261.051 229.707L255.102 233.537C253.744 231.473 252.06 229.925 250.05 228.893C248.04 227.86 245.813 227.344 243.368 227.344C240.544 227.344 237.99 227.969 235.709 229.218C233.481 230.468 231.716 232.261 230.412 234.597C229.163 236.878 228.538 239.513 228.538 242.501C228.538 245.543 229.163 248.232 230.412 250.568C231.716 252.85 233.481 254.615 235.709 255.865C237.99 257.114 240.544 257.739 243.368 257.739C245.813 257.739 248.04 257.223 250.05 256.191C252.06 255.158 253.744 253.61 255.102 251.546L261.051 255.294C259.367 258.282 256.977 260.591 253.88 262.221C250.838 263.796 247.361 264.584 243.45 264.584Z" stroke="black" stroke-width="6" mask="url(#path-3-outside-1_130:87)"/>
<path d="M296.019 261.569C294.878 262.546 293.466 263.307 291.782 263.85C290.098 264.339 288.359 264.584 286.566 264.584C282.22 264.584 278.852 263.416 276.462 261.08C274.072 258.744 272.877 255.403 272.877 251.057V227.344H265.543V220.907H272.877V211.454H280.699V220.907H293.085V227.344H280.699V250.731C280.699 253.067 281.27 254.86 282.411 256.109C283.606 257.359 285.29 257.983 287.463 257.983C289.853 257.983 291.89 257.304 293.574 255.946L296.019 261.569Z" stroke="black" stroke-width="6" mask="url(#path-3-outside-1_130:87)"/>
</svg>
