<svg width="300" height="284" viewBox="0 0 300 284" fill="none" xmlns="http://www.w3.org/2000/svg">
<path d="M90.4947 94.2601V179.821H77.4161L30.2354 121.884V179.821H14.4678V94.2601H27.5464L74.7271 152.197V94.2601H90.4947Z" fill="white"/>
<path d="M129.311 107.583V133.618H170.625V147.063H129.311V179.821H113.421V94.2601H175.881V107.583H129.311Z" fill="white"/>
<path d="M269.841 179.821L269.719 123.106L241.606 170.043H234.517L206.404 123.84V179.821H191.247V94.2601H204.326L238.306 150.975L271.675 94.2601H284.753L284.875 179.821H269.841Z" fill="white"/>
<path d="M1.80273 14.4306V15.9306H3.30273H21.3595V64.3818V65.8818H22.8595H30.9267H32.4267V64.3818V15.9306H50.4834H51.9834V14.4306V7.34126V5.84126H50.4834H3.30273H1.80273V7.34126V14.4306ZM99.2054 65.8818H100.705V64.3818V39.5284C100.705 33.1372 99.0054 28.0467 95.3679 24.5246C91.8249 20.9868 87.0687 19.2865 81.2783 19.2865C77.8412 19.2865 74.6761 19.8887 71.8054 21.119L71.7951 21.1235C70.221 21.8122 68.8006 22.6625 67.5404 23.6759V3.91882V2.41882H66.0404H58.2177H56.7177V3.91882V64.3818V65.8818H58.2177H66.0404H67.5404V64.3818V42.136C67.5404 37.7784 68.689 34.6823 70.7679 32.6034L70.7737 32.5976L70.7795 32.5917C72.8837 30.4408 75.8047 29.2944 79.7301 29.2944C83.1901 29.2944 85.6276 30.2635 87.2795 32.0047C88.9296 33.744 89.8827 36.4602 89.8827 40.4248V64.3818V65.8818H91.3827H99.2054ZM152.79 46.8955H154.133L154.281 45.5611C154.393 44.5585 154.453 43.7091 154.453 43.0324C154.453 38.4716 153.483 34.3635 151.503 30.7488C149.581 27.1422 146.861 24.3293 143.357 22.3409C139.899 20.2928 135.967 19.2865 131.604 19.2865C127.237 19.2865 123.255 20.2947 119.697 22.3356C116.195 24.3212 113.423 27.1279 111.393 30.7239L111.388 30.7319L111.384 30.74C109.405 34.3485 108.428 38.3758 108.428 42.7879C108.428 47.2582 109.434 51.3192 111.474 54.9334L111.479 54.9413L111.483 54.9492C113.582 58.5644 116.532 61.3923 120.3 63.4209L120.307 63.4252L120.315 63.4294C124.09 65.4039 128.382 66.3707 133.152 66.3707C136.903 66.3707 140.333 65.7455 143.419 64.4657C146.559 63.1856 149.203 61.3109 151.322 58.8391L152.157 57.8642L151.323 56.8882L147.004 51.8361L145.897 50.5407L144.753 51.8035C141.916 54.9331 138.181 56.5259 133.397 56.5259C129.449 56.5259 126.238 55.4712 123.666 53.4374C121.582 51.7108 120.212 49.5475 119.554 46.8955H152.79ZM139.951 31.9867L139.963 31.9981L139.975 32.0094C141.839 33.6748 143.075 35.7454 143.672 38.2729H119.527C120.117 35.687 121.334 33.5893 123.157 31.9225C125.407 29.9142 128.19 28.8869 131.604 28.8869C135.012 28.8869 137.757 29.9363 139.951 31.9867Z" stroke="white" stroke-width="3"/>
<mask id="path-3-outside-1_100:163" maskUnits="userSpaceOnUse" x="8.53125" y="200.018" width="292" height="84" fill="black">
<rect fill="white" x="8.53125" y="200.018" width="292" height="84"/>
<path d="M33.7771 207.662C41.1652 207.662 46.9779 209.428 51.2152 212.959C55.4525 216.49 57.5711 221.352 57.5711 227.545C57.5711 233.738 55.4525 238.6 51.2152 242.131C46.9779 245.662 41.1652 247.428 33.7771 247.428H19.6799V264.703H11.5312V207.662H33.7771ZM33.5326 240.338C38.6934 240.338 42.6319 239.252 45.3482 237.079C48.0644 234.852 49.4225 231.674 49.4225 227.545C49.4225 223.416 48.0644 220.266 45.3482 218.093C42.6319 215.865 38.6934 214.752 33.5326 214.752H19.6799V240.338H33.5326Z"/>
<path d="M75.1824 228.767C76.5405 226.268 78.5505 224.367 81.2124 223.063C83.8743 221.759 87.1066 221.108 90.9093 221.108V228.686C90.4747 228.632 89.8772 228.604 89.1166 228.604C84.8793 228.604 81.5384 229.881 79.0938 232.434C76.7035 234.933 75.5084 238.519 75.5084 243.19V264.703H67.6857V221.515H75.1824V228.767Z"/>
<path d="M118.65 265.192C114.359 265.192 110.502 264.241 107.079 262.34C103.657 260.438 100.968 257.831 99.0121 254.517C97.1108 251.149 96.1601 247.346 96.1601 243.109C96.1601 238.872 97.1108 235.096 99.0121 231.782C100.968 228.414 103.657 225.807 107.079 223.96C110.502 222.058 114.359 221.108 118.65 221.108C122.942 221.108 126.772 222.058 130.14 223.96C133.562 225.807 136.224 228.414 138.126 231.782C140.081 235.096 141.059 238.872 141.059 243.109C141.059 247.346 140.081 251.149 138.126 254.517C136.224 257.831 133.562 260.438 130.14 262.34C126.772 264.241 122.942 265.192 118.65 265.192ZM118.65 258.347C121.421 258.347 123.893 257.722 126.066 256.473C128.293 255.169 130.031 253.376 131.281 251.095C132.53 248.759 133.155 246.097 133.155 243.109C133.155 240.121 132.53 237.486 131.281 235.205C130.031 232.869 128.293 231.076 126.066 229.827C123.893 228.577 121.421 227.952 118.65 227.952C115.88 227.952 113.381 228.577 111.154 229.827C108.981 231.076 107.242 232.869 105.938 235.205C104.689 237.486 104.064 240.121 104.064 243.109C104.064 246.097 104.689 248.759 105.938 251.095C107.242 253.376 108.981 255.169 111.154 256.473C113.381 257.722 115.88 258.347 118.65 258.347Z"/>
<path d="M146.337 281C144.435 281 142.67 280.783 141.04 280.348C139.41 279.914 138.052 279.262 136.966 278.393L139.492 272.363C141.122 273.721 143.24 274.4 145.848 274.4C147.912 274.4 149.488 273.748 150.574 272.444C151.715 271.195 152.285 269.32 152.285 266.822V221.515H160.108V266.659C160.108 271.113 158.913 274.617 156.523 277.17C154.132 279.724 150.737 281 146.337 281ZM156.197 213.203C154.676 213.203 153.399 212.714 152.367 211.737C151.389 210.759 150.9 209.564 150.9 208.151C150.9 206.739 151.389 205.544 152.367 204.566C153.399 203.534 154.676 203.018 156.197 203.018C157.718 203.018 158.967 203.506 159.945 204.484C160.977 205.408 161.493 206.576 161.493 207.988C161.493 209.455 160.977 210.704 159.945 211.737C158.967 212.714 157.718 213.203 156.197 213.203Z"/>
<path d="M214.067 243.353C214.067 243.951 214.012 244.739 213.904 245.717H178.864C179.353 249.519 181.01 252.589 183.835 254.924C186.714 257.206 190.273 258.347 194.51 258.347C199.671 258.347 203.827 256.609 206.977 253.132L211.296 258.184C209.34 260.466 206.896 262.204 203.962 263.399C201.083 264.594 197.851 265.192 194.265 265.192C189.702 265.192 185.655 264.268 182.124 262.421C178.593 260.52 175.849 257.885 173.894 254.517C171.992 251.149 171.042 247.346 171.042 243.109C171.042 238.926 171.965 235.15 173.812 231.782C175.714 228.414 178.294 225.807 181.554 223.96C184.867 222.058 188.589 221.108 192.717 221.108C196.846 221.108 200.513 222.058 203.718 223.96C206.977 225.807 209.503 228.414 211.296 231.782C213.143 235.15 214.067 239.007 214.067 243.353ZM192.717 227.708C188.969 227.708 185.818 228.849 183.265 231.13C180.766 233.412 179.299 236.4 178.864 240.094H206.57C206.135 236.454 204.641 233.494 202.088 231.212C199.589 228.876 196.466 227.708 192.717 227.708Z"/>
<path d="M243.753 265.192C239.352 265.192 235.414 264.241 231.937 262.34C228.515 260.438 225.826 257.831 223.87 254.517C221.914 251.149 220.936 247.346 220.936 243.109C220.936 238.872 221.914 235.096 223.87 231.782C225.826 228.414 228.515 225.807 231.937 223.96C235.414 222.058 239.352 221.108 243.753 221.108C247.664 221.108 251.141 221.895 254.183 223.471C257.279 225.046 259.67 227.328 261.354 230.316L255.405 234.145C254.047 232.081 252.363 230.533 250.353 229.501C248.343 228.469 246.116 227.952 243.671 227.952C240.846 227.952 238.293 228.577 236.011 229.827C233.784 231.076 232.019 232.869 230.715 235.205C229.465 237.486 228.841 240.121 228.841 243.109C228.841 246.151 229.465 248.84 230.715 251.176C232.019 253.458 233.784 255.223 236.011 256.473C238.293 257.722 240.846 258.347 243.671 258.347C246.116 258.347 248.343 257.831 250.353 256.799C252.363 255.767 254.047 254.218 255.405 252.154L261.354 255.902C259.67 258.89 257.279 261.199 254.183 262.829C251.141 264.404 247.664 265.192 243.753 265.192Z"/>
<path d="M296.322 262.177C295.181 263.155 293.768 263.915 292.084 264.458C290.4 264.947 288.662 265.192 286.869 265.192C282.523 265.192 279.155 264.024 276.765 261.688C274.375 259.352 273.179 256.011 273.179 251.665V227.952H265.846V221.515H273.179V212.063H281.002V221.515H293.388V227.952H281.002V251.339C281.002 253.675 281.573 255.468 282.713 256.717C283.908 257.967 285.593 258.591 287.766 258.591C290.156 258.591 292.193 257.912 293.877 256.554L296.322 262.177Z"/>
</mask>
<path d="M33.7771 207.662C41.1652 207.662 46.9779 209.428 51.2152 212.959C55.4525 216.49 57.5711 221.352 57.5711 227.545C57.5711 233.738 55.4525 238.6 51.2152 242.131C46.9779 245.662 41.1652 247.428 33.7771 247.428H19.6799V264.703H11.5312V207.662H33.7771ZM33.5326 240.338C38.6934 240.338 42.6319 239.252 45.3482 237.079C48.0644 234.852 49.4225 231.674 49.4225 227.545C49.4225 223.416 48.0644 220.266 45.3482 218.093C42.6319 215.865 38.6934 214.752 33.5326 214.752H19.6799V240.338H33.5326Z" stroke="white" stroke-width="6" mask="url(#path-3-outside-1_100:163)"/>
<path d="M75.1824 228.767C76.5405 226.268 78.5505 224.367 81.2124 223.063C83.8743 221.759 87.1066 221.108 90.9093 221.108V228.686C90.4747 228.632 89.8772 228.604 89.1166 228.604C84.8793 228.604 81.5384 229.881 79.0938 232.434C76.7035 234.933 75.5084 238.519 75.5084 243.19V264.703H67.6857V221.515H75.1824V228.767Z" stroke="white" stroke-width="6" mask="url(#path-3-outside-1_100:163)"/>
<path d="M118.65 265.192C114.359 265.192 110.502 264.241 107.079 262.34C103.657 260.438 100.968 257.831 99.0121 254.517C97.1108 251.149 96.1601 247.346 96.1601 243.109C96.1601 238.872 97.1108 235.096 99.0121 231.782C100.968 228.414 103.657 225.807 107.079 223.96C110.502 222.058 114.359 221.108 118.65 221.108C122.942 221.108 126.772 222.058 130.14 223.96C133.562 225.807 136.224 228.414 138.126 231.782C140.081 235.096 141.059 238.872 141.059 243.109C141.059 247.346 140.081 251.149 138.126 254.517C136.224 257.831 133.562 260.438 130.14 262.34C126.772 264.241 122.942 265.192 118.65 265.192ZM118.65 258.347C121.421 258.347 123.893 257.722 126.066 256.473C128.293 255.169 130.031 253.376 131.281 251.095C132.53 248.759 133.155 246.097 133.155 243.109C133.155 240.121 132.53 237.486 131.281 235.205C130.031 232.869 128.293 231.076 126.066 229.827C123.893 228.577 121.421 227.952 118.65 227.952C115.88 227.952 113.381 228.577 111.154 229.827C108.981 231.076 107.242 232.869 105.938 235.205C104.689 237.486 104.064 240.121 104.064 243.109C104.064 246.097 104.689 248.759 105.938 251.095C107.242 253.376 108.981 255.169 111.154 256.473C113.381 257.722 115.88 258.347 118.65 258.347Z" stroke="white" stroke-width="6" mask="url(#path-3-outside-1_100:163)"/>
<path d="M146.337 281C144.435 281 142.67 280.783 141.04 280.348C139.41 279.914 138.052 279.262 136.966 278.393L139.492 272.363C141.122 273.721 143.24 274.4 145.848 274.4C147.912 274.4 149.488 273.748 150.574 272.444C151.715 271.195 152.285 269.32 152.285 266.822V221.515H160.108V266.659C160.108 271.113 158.913 274.617 156.523 277.17C154.132 279.724 150.737 281 146.337 281ZM156.197 213.203C154.676 213.203 153.399 212.714 152.367 211.737C151.389 210.759 150.9 209.564 150.9 208.151C150.9 206.739 151.389 205.544 152.367 204.566C153.399 203.534 154.676 203.018 156.197 203.018C157.718 203.018 158.967 203.506 159.945 204.484C160.977 205.408 161.493 206.576 161.493 207.988C161.493 209.455 160.977 210.704 159.945 211.737C158.967 212.714 157.718 213.203 156.197 213.203Z" stroke="white" stroke-width="6" mask="url(#path-3-outside-1_100:163)"/>
<path d="M214.067 243.353C214.067 243.951 214.012 244.739 213.904 245.717H178.864C179.353 249.519 181.01 252.589 183.835 254.924C186.714 257.206 190.273 258.347 194.51 258.347C199.671 258.347 203.827 256.609 206.977 253.132L211.296 258.184C209.34 260.466 206.896 262.204 203.962 263.399C201.083 264.594 197.851 265.192 194.265 265.192C189.702 265.192 185.655 264.268 182.124 262.421C178.593 260.52 175.849 257.885 173.894 254.517C171.992 251.149 171.042 247.346 171.042 243.109C171.042 238.926 171.965 235.15 173.812 231.782C175.714 228.414 178.294 225.807 181.554 223.96C184.867 222.058 188.589 221.108 192.717 221.108C196.846 221.108 200.513 222.058 203.718 223.96C206.977 225.807 209.503 228.414 211.296 231.782C213.143 235.15 214.067 239.007 214.067 243.353ZM192.717 227.708C188.969 227.708 185.818 228.849 183.265 231.13C180.766 233.412 179.299 236.4 178.864 240.094H206.57C206.135 236.454 204.641 233.494 202.088 231.212C199.589 228.876 196.466 227.708 192.717 227.708Z" stroke="white" stroke-width="6" mask="url(#path-3-outside-1_100:163)"/>
<path d="M243.753 265.192C239.352 265.192 235.414 264.241 231.937 262.34C228.515 260.438 225.826 257.831 223.87 254.517C221.914 251.149 220.936 247.346 220.936 243.109C220.936 238.872 221.914 235.096 223.87 231.782C225.826 228.414 228.515 225.807 231.937 223.96C235.414 222.058 239.352 221.108 243.753 221.108C247.664 221.108 251.141 221.895 254.183 223.471C257.279 225.046 259.67 227.328 261.354 230.316L255.405 234.145C254.047 232.081 252.363 230.533 250.353 229.501C248.343 228.469 246.116 227.952 243.671 227.952C240.846 227.952 238.293 228.577 236.011 229.827C233.784 231.076 232.019 232.869 230.715 235.205C229.465 237.486 228.841 240.121 228.841 243.109C228.841 246.151 229.465 248.84 230.715 251.176C232.019 253.458 233.784 255.223 236.011 256.473C238.293 257.722 240.846 258.347 243.671 258.347C246.116 258.347 248.343 257.831 250.353 256.799C252.363 255.767 254.047 254.218 255.405 252.154L261.354 255.902C259.67 258.89 257.279 261.199 254.183 262.829C251.141 264.404 247.664 265.192 243.753 265.192Z" stroke="white" stroke-width="6" mask="url(#path-3-outside-1_100:163)"/>
<path d="M296.322 262.177C295.181 263.155 293.768 263.915 292.084 264.458C290.4 264.947 288.662 265.192 286.869 265.192C282.523 265.192 279.155 264.024 276.765 261.688C274.375 259.352 273.179 256.011 273.179 251.665V227.952H265.846V221.515H273.179V212.063H281.002V221.515H293.388V227.952H281.002V251.339C281.002 253.675 281.573 255.468 282.713 256.717C283.908 257.967 285.593 258.591 287.766 258.591C290.156 258.591 292.193 257.912 293.877 256.554L296.322 262.177Z" stroke="white" stroke-width="6" mask="url(#path-3-outside-1_100:163)"/>
</svg>
